<?xml version="1.0" encoding="UTF-8"?>
<svg xmlns="http://www.w3.org/2000/svg" viewBox="0 0 3072 3072">
  <defs>
    <style>
      .cls-1 {
        fill: none;
      }

      .cls-2 {
        fill: rgba(221, 210, 189, .85);
      }

      .cls-3 {
        fill: #cd212a;
        stroke: #ddd2bd;
        stroke-miterlimit: 10;
      }
    </style>
  </defs>
  <g id="Background">
    <rect class="cls-3" width="3072" height="3072"/>
  </g>
  <g id="RightIcon">
    <g id="Scroll">
      <rect class="cls-1" x="258.67" y="355.28" width="2395.29" height="2386.32"/>
      <path class="cls-2" d="m410.04,865.92c0,67.38,44.92,111.17,114.54,111.17h291.97v1377.89c0,235.82,115.67,352.61,351.49,352.61h1283.56c213.37,0,353.73-145.99,353.73-367.21v-305.45c0-67.38-44.92-111.17-114.53-111.17h-93.21V675.01c0-234.7-116.79-352.61-348.12-352.61H704.26c-175.18,0-294.22,119.03-294.22,306.57v236.95Zm587.31,1490.18V628.97c0-46.04-4.49-88.72-13.47-125.77h1255.48c116.79,0,177.43,61.76,177.43,174.06v1246.5h-964.63c-69.62,0-115.67,43.8-115.67,111.17v321.17c0,102.19-70.75,170.69-168.45,170.69s-170.69-71.87-170.69-170.69Zm-406.52-1559.81v-167.32c0-78.61,48.29-125.77,113.42-125.77s112.3,47.16,112.3,125.77v167.32h-225.72Zm882.65,1730.5c28.07-49.41,43.8-110.05,43.8-183.04v-239.19h1107.25v235.82c0,111.17-69.63,186.41-172.94,186.41h-978.11Zm-152.72-1156.66h403.15c40.43,0,69.62-29.2,69.62-67.38s-29.2-70.75-69.62-70.75h-403.15c-40.43,0-70.75,31.44-70.75,70.75s30.32,67.38,70.75,67.38Zm0-391.92h772.61c40.43,0,69.62-30.32,69.62-69.62s-29.2-68.5-69.62-68.5h-772.61c-40.43,0-70.75,30.32-70.75,68.5s30.32,69.62,70.75,69.62Z"/>
    </g>
    <g id="Pencil">
      <rect class="cls-1" x="1606.47" y="1000" width="787.06" height="800"/>
      <path class="cls-2" d="m1741.29,1755l539.04-538.55-86.46-86.96-539.54,539.04-46.94,109.69c-4.45,11.86,7.91,25.69,19.76,20.75l114.13-43.97Zm582.52-581.04l49.9-48.91c25.2-25.2,26.19-52.37,3.95-75.1l-16.8-16.8c-22.23-22.23-49.41-19.76-74.61,4.45l-49.9,49.41,87.45,86.96Z"/>
    </g>
  </g>
</svg>